<svg id="Capa_1" data-name="Capa 1" xmlns="http://www.w3.org/2000/svg" viewBox="0 0 487.99 565.85"><defs><style>.cls-1{font-size:290px;}.cls-1,.cls-2,.cls-3{fill:#a8cd6e;font-family:Avenir-Black, Avenir;}.cls-2{font-size:80px;}.cls-3{font-size:106px;}</style></defs><title>bike</title><path d="M340.67,122.67A42.67,42.67,0,1,0,298,80,42.79,42.79,0,0,0,340.67,122.67Z" transform="translate(-0.65 -37.33)"/><path d="M414.27,238.93V196.27c-32,0-58.67-11.74-77.87-30.94L294.8,124.8c-6.4-7.47-17.07-12.8-28.8-12.8s-22.4,4.27-29.87,12.8l-58.66,58.67c-7.47,7.46-12.8,18.13-12.8,29.86s5.33,22.4,12.8,30.94L244.67,304V410.67h42.66V277.33L240.4,230.4l50.13-51.2,16,16C333.2,222.93,370.53,238.93,414.27,238.93Z" transform="translate(-0.65 -37.33)"/><text class="cls-1" transform="translate(289.35 433.32)">C</text><text class="cls-1" transform="translate(0 433.32)">O</text><text class="cls-2" transform="translate(96.14 348.92)">o</text><text class="cls-3" transform="translate(385.8 338.63)">.</text></svg>