<svg xmlns="http://www.w3.org/2000/svg" viewBox="0 0 487.99 565.85"><defs><style>.cls-1{font-size:290px;}.cls-1,.cls-2,.cls-3{fill:#636362;font-family:Avenir-Black, Avenir;}.cls-2{font-size:80px;}.cls-3{font-size:106px;}</style></defs><title>Fichier 2</title><g id="Calque_2" data-name="Calque 2"><g id="Capa_1" data-name="Capa 1"><path d="M340,85.33a42.67,42.67,0,1,0-42.66-42.66A42.79,42.79,0,0,0,340,85.33Z"/><path d="M413.61,201.6V158.93c-32,0-58.66-11.73-77.86-30.93l-41.6-40.53c-6.4-7.47-17.07-12.8-28.8-12.8s-22.4,4.26-29.87,12.8l-58.67,58.66C169.34,153.6,164,164.27,164,176s5.33,22.4,12.8,30.93L244,266.67V373.33h42.67V240l-46.93-46.93,50.13-51.2,16,16C332.55,185.6,369.88,201.6,413.61,201.6Z"/><text class="cls-1" transform="translate(289.35 433.32)">C</text><text class="cls-1" transform="translate(0 433.32)">O</text><text class="cls-2" transform="translate(96.14 348.92)">o</text><text class="cls-3" transform="translate(385.8 338.63)">.</text></g></g></svg>