<svg xmlns="http://www.w3.org/2000/svg" viewBox="0 0 187.74 77.93"><defs><style>.cls-1{font-size:62px;}.cls-1,.cls-2,.cls-3{fill:#a8cd6e;}.cls-1,.cls-3{font-family:Avenir-Roman, Avenir;}.cls-2{font-size:18px;font-family:Avenir-Black, Avenir;}.cls-3{font-size:24px;}.cls-4{font-size:36px;font-family:Avenir-Light, Avenir;letter-spacing:0.02em;}</style></defs><title>logo</title><g id="OC_Image" data-name="OC Image"><text class="cls-1" transform="translate(47.11 53.25)">O</text><text class="cls-2" transform="translate(67.64 36.25)">o</text><text class="cls-1" transform="translate(103.99 52.95)">C</text><text class="cls-3" transform="translate(124.86 33.2)">.</text></g><g id="vel_ity" data-name="vel         ity"><text class="cls-4" transform="translate(0 42.67)"><tspan xml:space="preserve">vel          ity</tspan></text></g><g id="DUBLIN"><path d="M89,73.82h2.57a3.48,3.48,0,0,1,3.57,3.78c0,2.3-1.43,3.92-3.59,3.92H89ZM89.63,81h1.85c2,0,3-1.42,3-3.31,0-1.69-.89-3.25-3-3.25H89.63Z" transform="translate(-13.37 -12.67)"/><path d="M99.25,73.82v4.66c0,2,1.14,2.56,2.23,2.56,1.28,0,2.23-.54,2.23-2.56V73.82h.62v4.63c0,2.41-1.28,3.16-2.87,3.16s-2.85-.82-2.85-3.06V73.82Z" transform="translate(-13.37 -12.67)"/><path d="M108.24,73.82h2.7c1.48,0,2.27.79,2.27,1.89A1.67,1.67,0,0,1,112,77.4a1.93,1.93,0,0,1,1.45,1.9,2.21,2.21,0,0,1-2.5,2.22h-2.74Zm2.5,3.31c1.32,0,1.82-.5,1.82-1.38S112,74.39,111,74.39h-2.12v2.74ZM108.85,81H111c1,0,1.84-.5,1.84-1.62,0-1-.62-1.64-2.15-1.64h-1.84Z" transform="translate(-13.37 -12.67)"/><path d="M117,73.82h.61V81h4.13l-.11.57H117Z" transform="translate(-13.37 -12.67)"/><path d="M125.3,73.82v7.7h-.62v-7.7Z" transform="translate(-13.37 -12.67)"/><path d="M129.32,81.52v-7.7h.9c1.2,1.85,4,6.12,4.47,7h0c-.06-1.11,0-2.24,0-3.5V73.82h.62v7.7h-.84c-1.13-1.78-4-6.23-4.52-7.08h0c0,1,0,2.14,0,3.53v3.55Z" transform="translate(-13.37 -12.67)"/></g></svg>